<svg width="80" height="80" viewBox="0 0 80 80" fill="none" xmlns="http://www.w3.org/2000/svg">
<rect x="1" y="1" width="78" height="78" rx="7" fill="#FAFAFA"/>
<path d="M58.6634 72H20.9238C18.2525 72 16.0785 69.8684 16.0785 67.2486V39.7705H10.5135C9.48995 39.7705 8.57716 39.1704 8.18904 38.2408C7.80091 37.3118 8.02133 36.2559 8.75015 35.5515L35.4694 9.72873C37.8538 7.42376 41.7345 7.42376 44.1189 9.72873L70.8381 35.5515C71.5674 36.2564 71.7878 37.3119 71.3992 38.2408C71.0111 39.1699 70.0983 39.7705 69.0748 39.7705H63.5098V67.2486C63.5098 69.8684 61.3363 72 58.6645 72H58.6634ZM39.7936 10.0615C38.7625 10.0615 37.7317 10.4407 36.9464 11.1992L10.2272 37.0219C10.058 37.1855 10.0978 37.365 10.1361 37.458C10.1749 37.5506 10.2751 37.7057 10.5123 37.7057H17.13C17.7117 37.7057 18.1827 38.1676 18.1827 38.7381V67.2496C18.1827 68.7308 19.4118 69.9362 20.9226 69.9362H58.6622C60.1725 69.9362 61.4021 68.7308 61.4021 67.2496L61.4026 38.7381C61.4026 38.1676 61.8736 37.7057 62.4553 37.7057H69.073C69.3107 37.7057 69.4104 37.5506 69.4492 37.458C69.488 37.3655 69.5278 37.1859 69.3582 37.0219L42.6401 11.1992C41.8553 10.4407 40.8236 10.0615 39.7929 10.0615H39.7936Z" fill="black"/>
<path d="M48.9368 70.9681H46.8313V50.6372C46.8313 49.156 45.6022 47.9501 44.092 47.9501L35.4957 47.9506C33.9854 47.9506 32.7563 49.156 32.7563 50.6376V70.9686H30.6509V50.6364C30.6509 48.0166 32.8244 45.8845 35.4957 45.8845H44.0915C46.7628 45.8845 48.9363 48.0161 48.9363 50.6364L48.9368 70.9681Z" fill="black"/>
<rect x="1" y="1" width="78" height="78" rx="7" stroke="#1E1E1E" stroke-width="2"/>
</svg>
